<svg width="24" height="25" viewBox="0 0 24 25" fill="none" xmlns="http://www.w3.org/2000/svg">
<g id="icon-park-solid:more-app">
<g id="Group">
<path id="Vector" d="M9 2.44458H3C2.73478 2.44458 2.48043 2.54994 2.29289 2.73747C2.10536 2.92501 2 3.17936 2 3.44458V9.44458C2 9.7098 2.10536 9.96415 2.29289 10.1517C2.48043 10.3392 2.73478 10.4446 3 10.4446H9C9.26522 10.4446 9.51957 10.3392 9.70711 10.1517C9.89464 9.96415 10 9.7098 10 9.44458V3.44458C10 3.17936 9.89464 2.92501 9.70711 2.73747C9.51957 2.54994 9.26522 2.44458 9 2.44458ZM9 14.4446H3C2.73478 14.4446 2.48043 14.5499 2.29289 14.7375C2.10536 14.925 2 15.1794 2 15.4446V21.4446C2 21.7098 2.10536 21.9642 2.29289 22.1517C2.48043 22.3392 2.73478 22.4446 3 22.4446H9C9.26522 22.4446 9.51957 22.3392 9.70711 22.1517C9.89464 21.9642 10 21.7098 10 21.4446V15.4446C10 15.1794 9.89464 14.925 9.70711 14.7375C9.51957 14.5499 9.26522 14.4446 9 14.4446ZM21 2.44458H15C14.7348 2.44458 14.4804 2.54994 14.2929 2.73747C14.1054 2.92501 14 3.17936 14 3.44458V9.44458C14 9.7098 14.1054 9.96415 14.2929 10.1517C14.4804 10.3392 14.7348 10.4446 15 10.4446H21C21.2652 10.4446 21.5196 10.3392 21.7071 10.1517C21.8946 9.96415 22 9.7098 22 9.44458V3.44458C22 3.17936 21.8946 2.92501 21.7071 2.73747C21.5196 2.54994 21.2652 2.44458 21 2.44458Z" fill="#F48A4E" stroke="#F48A4E" stroke-width="2" stroke-linejoin="round"/>
<path id="Vector_2" d="M14 14.4446H22M18 18.4446H22M14 22.4446H22" stroke="#F48A4E" stroke-width="2" stroke-linecap="round" stroke-linejoin="round"/>
</g>
</g>
</svg>
