<svg width="25" height="25" viewBox="0 0 25 25" fill="none" xmlns="http://www.w3.org/2000/svg">
<path fill-rule="evenodd" clip-rule="evenodd" d="M2.97007 21.7854C2.82962 21.6447 2.75073 21.4541 2.75073 21.2554C2.75073 21.0566 2.82962 20.866 2.97007 20.7254L10.6901 13.0054H7.15507C6.95616 13.0054 6.76539 12.9264 6.62474 12.7857C6.48409 12.645 6.40507 12.4543 6.40507 12.2554C6.40507 12.0565 6.48409 11.8657 6.62474 11.725C6.76539 11.5844 6.95616 11.5054 7.15507 11.5054H12.5001C12.699 11.5054 12.8897 11.5844 13.0304 11.725C13.1711 11.8657 13.2501 12.0565 13.2501 12.2554V17.5994C13.2501 17.7983 13.1711 17.989 13.0304 18.1297C12.8897 18.2704 12.699 18.3494 12.5001 18.3494C12.3012 18.3494 12.1104 18.2704 11.9697 18.1297C11.8291 17.989 11.7501 17.7983 11.7501 17.5994V14.0654L4.03007 21.7854C3.88945 21.9258 3.69882 22.0047 3.50007 22.0047C3.30132 22.0047 3.1107 21.9258 2.97007 21.7854Z" fill="#10224D"/>
<path d="M4.018 17.5554L7.07 14.5034C6.4827 14.4787 5.92837 14.2252 5.52561 13.797C5.12285 13.3688 4.90364 12.8001 4.91488 12.2123C4.92612 11.6246 5.16691 11.0646 5.58574 10.6522C6.00457 10.2397 6.56818 10.0076 7.156 10.0054H12.5C13.0967 10.0054 13.669 10.2424 14.091 10.6644C14.5129 11.0863 14.75 11.6586 14.75 12.2554V17.5994C14.7478 18.1872 14.5156 18.7508 14.1032 19.1696C13.6907 19.5885 13.1307 19.8293 12.543 19.8405C11.9553 19.8517 11.3865 19.6325 10.9584 19.2298C10.5302 18.827 10.2767 18.2727 10.252 17.6854L7.2 20.7374C8.78842 21.7325 10.6256 22.2587 12.5 22.2554C18.023 22.2554 22.5 17.7784 22.5 12.2554C22.5 6.73237 18.023 2.25537 12.5 2.25537C6.977 2.25537 2.5 6.73237 2.5 12.2554C2.5 14.2024 3.056 16.0184 4.018 17.5554Z" fill="#10224D"/>
</svg>
