<svg width="45" height="45" viewBox="0 0 45 45" fill="none" xmlns="http://www.w3.org/2000/svg">
<g id="icons">
<path id="Vector" fill-rule="evenodd" clip-rule="evenodd" d="M5.02859 40.0249C4.7711 39.7671 4.62646 39.4176 4.62646 39.0532C4.62646 38.6888 4.7711 38.3394 5.02859 38.0816L19.1819 23.9282H12.7011C12.3364 23.9282 11.9867 23.7834 11.7288 23.5255C11.471 23.2676 11.3261 22.9179 11.3261 22.5532C11.3261 22.1885 11.471 21.8388 11.7288 21.581C11.9867 21.3231 12.3364 21.1782 12.7011 21.1782H22.5003C22.8649 21.1782 23.2147 21.3231 23.4725 21.581C23.7304 21.8388 23.8753 22.1885 23.8753 22.5532V32.3506C23.8753 32.7152 23.7304 33.065 23.4725 33.3228C23.2147 33.5807 22.8649 33.7256 22.5003 33.7256C22.1356 33.7256 21.7858 33.5807 21.528 33.3228C21.2701 33.065 21.1253 32.7152 21.1253 32.3506V25.8716L6.97192 40.0249C6.71411 40.2824 6.36463 40.427 6.00025 40.427C5.63588 40.427 5.2864 40.2824 5.02859 40.0249Z" fill="#10224D"/>
<path id="Vector_2" d="M6.94975 32.27L12.5451 26.6746C11.4684 26.6294 10.4521 26.1646 9.7137 25.3796C8.97531 24.5947 8.57343 23.5519 8.59403 22.4744C8.61463 21.3969 9.05608 20.3703 9.82394 19.6142C10.5918 18.858 11.6251 18.4324 12.7027 18.4283H22.5001C23.5941 18.4283 24.6433 18.8629 25.4169 19.6365C26.1905 20.4101 26.6251 21.4593 26.6251 22.5533V32.3506C26.621 33.4283 26.1954 34.4616 25.4392 35.2294C24.6831 35.9973 23.6564 36.4388 22.579 36.4594C21.5015 36.48 20.4587 36.0781 19.6738 35.3397C18.8888 34.6013 18.424 33.585 18.3787 32.5083L12.7834 38.1036C15.6955 39.928 19.0637 40.8927 22.5001 40.8866C32.6256 40.8866 40.8334 32.6788 40.8334 22.5533C40.8334 12.4278 32.6256 4.21997 22.5001 4.21997C12.3746 4.21997 4.16675 12.4278 4.16675 22.5533C4.16675 26.1228 5.18608 29.4521 6.94975 32.27Z" fill="#10224D"/>
</g>
</svg>
