<svg width="24" height="25" viewBox="0 0 24 25" fill="none" xmlns="http://www.w3.org/2000/svg">
<g id="vaadin:cluster" clip-path="url(#clip0_1564_369)">
<path id="Vector" d="M20.9999 18.9445C20.464 18.9592 19.9419 19.1172 19.4879 19.402L16.1699 16.1695C16.8462 15.3152 17.2348 14.2687 17.2799 13.18L19.6349 12.9445C19.8348 13.4484 20.2111 13.8624 20.6937 14.1094C21.1762 14.3565 21.7321 14.4197 22.2578 14.2874C22.7835 14.1551 23.2432 13.8362 23.5513 13.3901C23.8593 12.9441 23.9948 12.4012 23.9324 11.8627C23.87 11.3242 23.614 10.8268 23.212 10.463C22.8101 10.0992 22.2897 9.8939 21.7477 9.88531C21.2056 9.87671 20.6789 10.0654 20.2657 10.4163C19.8524 10.7671 19.5808 11.2562 19.5014 11.7925L17.1149 11.9845C16.956 11.1639 16.604 10.393 16.0881 9.73541C15.5721 9.07785 14.9071 8.55256 14.1479 8.203L14.6099 6.9445H14.9999C15.7271 6.93903 16.4275 6.6696 16.9709 6.18633C17.5144 5.70305 17.8637 5.03883 17.9541 4.31724C18.0444 3.59564 17.8696 2.8658 17.462 2.26347C17.0545 1.66115 16.4421 1.22736 15.7387 1.0428C15.0352 0.858242 14.2887 0.935476 13.638 1.26014C12.9873 1.5848 12.4766 2.13478 12.201 2.80778C11.9255 3.48077 11.9037 4.23095 12.1399 4.91877C12.376 5.60659 12.854 6.18521 13.4849 6.547L13.0799 7.8295C12.709 7.74416 12.3294 7.70188 11.9489 7.7035C10.7039 7.7035 9.56385 8.1475 8.67735 8.887L4.18635 4.381C4.44822 3.95826 4.56267 3.46069 4.51181 2.96602C4.46096 2.47136 4.24767 2.00748 3.90527 1.64687C3.56287 1.28625 3.11065 1.04923 2.61928 0.972836C2.12791 0.89644 1.62508 0.984975 1.18935 1.22461C0.753628 1.46424 0.409563 1.84146 0.210922 2.29734C0.0122819 2.75321 -0.0297418 3.26205 0.091418 3.74433C0.212578 4.22662 0.490095 4.65518 0.880602 4.96305C1.27111 5.27092 1.75261 5.44075 2.24985 5.446C2.67135 5.4445 3.06585 5.3275 3.40035 5.125L7.88985 9.631C7.14949 10.5529 6.74718 11.7006 6.74985 12.883V13.1875L5.75985 13.3525C5.46767 12.669 4.93217 12.1184 4.25713 11.8072C3.58209 11.4961 2.81558 11.4466 2.10615 11.6684C1.39672 11.8902 0.794893 12.3675 0.417294 13.0077C0.0396946 13.648 -0.0867828 14.4056 0.0623724 15.1338C0.211528 15.8619 0.625694 16.5088 1.22461 16.949C1.82352 17.3892 2.56453 17.5915 3.30403 17.5165C4.04353 17.4415 4.72886 17.0946 5.2272 16.5431C5.72555 15.9916 6.00142 15.2748 6.00135 14.5315L5.99985 14.443L6.94485 14.2975C7.29228 15.5267 8.07355 16.5883 9.14385 17.2855L8.30985 19.0675C8.04709 18.9908 7.77506 18.9504 7.50135 18.9475H7.47585C6.766 18.9478 6.07926 19.1999 5.53771 19.6588C4.99617 20.1177 4.63489 20.7538 4.51812 21.454C4.40134 22.1542 4.53663 22.8731 4.89993 23.4829C5.26323 24.0927 5.83101 24.554 6.50233 24.7847C7.17365 25.0153 7.90502 25.0005 8.56644 24.7428C9.22785 24.4851 9.77645 24.0012 10.1147 23.3771C10.453 22.753 10.559 22.0292 10.4139 21.3344C10.2688 20.6395 9.88207 20.0186 9.32235 19.582L10.1714 17.8525C10.7174 18.0715 11.3519 18.199 12.0149 18.199C13.2854 18.199 14.4464 17.7325 15.3389 16.963L18.6029 20.149C18.1974 20.6896 17.9863 21.3514 18.0039 22.0269C18.0214 22.7025 18.2666 23.3524 18.6996 23.8712C19.1326 24.3901 19.7281 24.7475 20.3897 24.8857C21.0512 25.0238 21.74 24.9345 22.3445 24.6323C22.949 24.33 23.4337 23.8326 23.7201 23.2205C24.0065 22.6084 24.0779 21.9175 23.9226 21.2597C23.7673 20.602 23.3945 20.016 22.8646 19.5966C22.3347 19.1772 21.6787 18.949 21.0029 18.949L20.9999 18.9445ZM7.49985 23.4445C7.10203 23.4445 6.7205 23.2865 6.43919 23.0052C6.15789 22.7239 5.99985 22.3423 5.99985 21.9445C5.99985 21.5467 6.15789 21.1651 6.43919 20.8838C6.7205 20.6025 7.10203 20.4445 7.49985 20.4445C7.89768 20.4445 8.27921 20.6025 8.56051 20.8838C8.84181 21.1651 8.99985 21.5467 8.99985 21.9445C8.99985 22.3423 8.84181 22.7239 8.56051 23.0052C8.27921 23.2865 7.89768 23.4445 7.49985 23.4445ZM11.9999 16.6945C11.0053 16.6945 10.0515 16.2994 9.3482 15.5961C8.64494 14.8929 8.24985 13.9391 8.24985 12.9445C8.24985 11.9499 8.64494 10.9961 9.3482 10.2928C10.0515 9.58959 11.0053 9.1945 11.9999 9.1945C12.9944 9.1945 13.9482 9.58959 14.6515 10.2928C15.3548 10.9961 15.7499 11.9499 15.7499 12.9445C15.7499 13.9391 15.3548 14.8929 14.6515 15.5961C13.9482 16.2994 12.9944 16.6945 11.9999 16.6945Z" fill="#F48A4E"/>
</g>
<defs>
<clipPath id="clip0_1564_369">
<rect width="24" height="24" fill="white" transform="translate(0 0.94458)"/>
</clipPath>
</defs>
</svg>
