<svg width="25" height="25" viewBox="0 0 25 25" fill="none" xmlns="http://www.w3.org/2000/svg">
<g id="Component 2">
<path id="Vector" d="M8.96499 11.6404C10.098 10.5074 12.074 10.5074 13.207 11.6404L13.914 12.3474L15.328 10.9334L14.621 10.2264C13.678 9.28241 12.422 8.76141 11.086 8.76141C9.74999 8.76141 8.49399 9.28241 7.55099 10.2264L5.42899 12.3474C4.49377 13.2864 3.96869 14.5577 3.96869 15.8829C3.96869 17.2082 4.49377 18.4794 5.42899 19.4184C5.89277 19.8831 6.44384 20.2515 7.05052 20.5024C7.65719 20.7533 8.30748 20.8818 8.96399 20.8804C9.62067 20.8819 10.2712 20.7535 10.878 20.5026C11.4849 20.2517 12.0361 19.8832 12.5 19.4184L13.207 18.7114L11.793 17.2974L11.086 18.0044C10.5225 18.5654 9.75967 18.8804 8.96449 18.8804C8.16932 18.8804 7.40652 18.5654 6.84299 18.0044C6.2815 17.4411 5.9662 16.6782 5.9662 15.8829C5.9662 15.0876 6.2815 14.3247 6.84299 13.7614L8.96499 11.6404Z" fill="#F6F6F6"/>
<path id="Vector_2" d="M12.5 5.27641L11.793 5.98341L13.207 7.39741L13.914 6.69041C14.4775 6.1294 15.2403 5.81443 16.0355 5.81443C16.8307 5.81443 17.5935 6.1294 18.157 6.69041C18.7185 7.25368 19.0338 8.01657 19.0338 8.81191C19.0338 9.60724 18.7185 10.3701 18.157 10.9334L16.035 13.0544C14.902 14.1874 12.926 14.1874 11.793 13.0544L11.086 12.3474L9.672 13.7614L10.379 14.4684C11.322 15.4124 12.578 15.9334 13.914 15.9334C15.25 15.9334 16.506 15.4124 17.449 14.4684L19.571 12.3474C20.5062 11.4084 21.0313 10.1372 21.0313 8.81191C21.0313 7.48665 20.5062 6.21538 19.571 5.27641C18.6325 4.34021 17.3611 3.81445 16.0355 3.81445C14.7099 3.81445 13.4385 4.34021 12.5 5.27641Z" fill="#F6F6F6"/>
</g>
</svg>
