<svg width="25" height="25" viewBox="0 0 25 25" fill="none" xmlns="http://www.w3.org/2000/svg">
<g id="icons">
<path id="Vector" fill-rule="evenodd" clip-rule="evenodd" d="M12.3951 22.5139C17.9181 22.5139 22.3951 18.0369 22.3951 12.5139C22.3951 6.99092 17.9181 2.51392 12.3951 2.51392C6.87214 2.51392 2.39514 6.99092 2.39514 12.5139C2.39514 18.0369 6.87214 22.5139 12.3951 22.5139ZM17.3951 13.2639C17.5941 13.2639 17.7848 13.1849 17.9255 13.0442C18.0661 12.9036 18.1451 12.7128 18.1451 12.5139C18.1451 12.315 18.0661 12.1242 17.9255 11.9836C17.7848 11.8429 17.5941 11.7639 17.3951 11.7639H7.39514C7.19623 11.7639 7.00546 11.8429 6.86481 11.9836C6.72416 12.1242 6.64514 12.315 6.64514 12.5139C6.64514 12.7128 6.72416 12.9036 6.86481 13.0442C7.00546 13.1849 7.19623 13.2639 7.39514 13.2639H17.3951Z" fill="#10224D"/>
</g>
</svg>
