<svg width="25" height="25" viewBox="0 0 25 25" fill="none" xmlns="http://www.w3.org/2000/svg">
<g id="icons">
<path id="Vector" fill-rule="evenodd" clip-rule="evenodd" d="M12.8951 22.5139C18.4181 22.5139 22.8951 18.0369 22.8951 12.5139C22.8951 6.99092 18.4181 2.51392 12.8951 2.51392C7.37214 2.51392 2.89514 6.99092 2.89514 12.5139C2.89514 18.0369 7.37214 22.5139 12.8951 22.5139ZM12.8951 7.46892C13.1604 7.46892 13.4147 7.57427 13.6022 7.76181C13.7898 7.94935 13.8951 8.2037 13.8951 8.46892V11.5139H16.9411C17.2064 11.5139 17.4607 11.6193 17.6482 11.8068C17.8358 11.9943 17.9411 12.2487 17.9411 12.5139C17.9411 12.7791 17.8358 13.0335 17.6482 13.221C17.4607 13.4086 17.2064 13.5139 16.9411 13.5139H13.8951V16.5599C13.8951 16.8251 13.7898 17.0795 13.6022 17.267C13.4147 17.4546 13.1604 17.5599 12.8951 17.5599C12.6299 17.5599 12.3756 17.4546 12.188 17.267C12.0005 17.0795 11.8951 16.8251 11.8951 16.5599V13.5139H8.84914C8.58393 13.5139 8.32957 13.4086 8.14204 13.221C7.9545 13.0335 7.84914 12.7791 7.84914 12.5139C7.84914 12.2487 7.9545 11.9943 8.14204 11.8068C8.32957 11.6193 8.58393 11.5139 8.84914 11.5139H11.8951V8.46892C11.8951 8.2037 12.0005 7.94935 12.188 7.76181C12.3756 7.57427 12.6299 7.46892 12.8951 7.46892Z" fill="#10224D"/>
</g>
</svg>
