<svg width="24" height="24" viewBox="0 0 24 24" fill="none" xmlns="http://www.w3.org/2000/svg">
<path d="M8.465 11.2931C9.598 10.1601 11.574 10.1601 12.707 11.2931L13.414 12.0001L14.828 10.5861L14.121 9.87906C13.178 8.93506 11.922 8.41406 10.586 8.41406C9.25 8.41406 7.994 8.93506 7.051 9.87906L4.929 12.0001C3.99378 12.939 3.4687 14.2103 3.4687 15.5356C3.4687 16.8608 3.99378 18.1321 4.929 19.0711C5.39278 19.5357 5.94385 19.9041 6.55052 20.155C7.1572 20.4059 7.80749 20.5344 8.464 20.5331C9.12068 20.5345 9.77116 20.4061 10.378 20.1552C10.9849 19.9043 11.5361 19.5359 12 19.0711L12.707 18.3641L11.293 16.9501L10.586 17.6571C10.0225 18.2181 9.25967 18.533 8.4645 18.533C7.66933 18.533 6.90653 18.2181 6.343 17.6571C5.7815 17.0938 5.46621 16.3309 5.46621 15.5356C5.46621 14.7402 5.7815 13.9773 6.343 13.4141L8.465 11.2931Z" fill="#F6F6F6"/>
<path d="M12 4.92899L11.293 5.63599L12.707 7.04999L13.414 6.34299C13.9775 5.78198 14.7403 5.46702 15.5355 5.46702C16.3307 5.46702 17.0935 5.78198 17.657 6.34299C18.2185 6.90626 18.5338 7.66916 18.5338 8.46449C18.5338 9.25983 18.2185 10.0227 17.657 10.586L15.535 12.707C14.402 13.84 12.426 13.84 11.293 12.707L10.586 12L9.172 13.414L9.879 14.121C10.822 15.065 12.078 15.586 13.414 15.586C14.75 15.586 16.006 15.065 16.949 14.121L19.071 12C20.0062 11.061 20.5313 9.78975 20.5313 8.46449C20.5313 7.13924 20.0062 5.86797 19.071 4.92899C18.1325 3.9928 16.8611 3.46704 15.5355 3.46704C14.2099 3.46704 12.9385 3.9928 12 4.92899Z" fill="#F6F6F6"/>
</svg>
