<svg width="45" height="45" viewBox="0 0 45 45" fill="none" xmlns="http://www.w3.org/2000/svg">
<g id="icons">
<path id="Vector" fill-rule="evenodd" clip-rule="evenodd" d="M4.9236 4.5425C5.18141 4.28501 5.53089 4.14038 5.89526 4.14038C6.25964 4.14038 6.60912 4.28501 6.86693 4.5425L21.0203 18.6958L21.0203 12.215C21.0203 11.8503 21.1651 11.5006 21.423 11.2427C21.6809 10.9849 22.0306 10.84 22.3953 10.84C22.7599 10.84 23.1097 10.9849 23.3675 11.2427C23.6254 11.5006 23.7703 11.8503 23.7703 12.215L23.7703 22.0142C23.7703 22.3788 23.6254 22.7286 23.3675 22.9864C23.1097 23.2443 22.7599 23.3892 22.3953 23.3892L12.5979 23.3892C12.2333 23.3892 11.8835 23.2443 11.6257 22.9864C11.3678 22.7286 11.2229 22.3788 11.2229 22.0142C11.2229 21.6495 11.3678 21.2998 11.6257 21.0419C11.8835 20.784 12.2333 20.6392 12.5979 20.6392L19.0769 20.6392L4.9236 6.48584C4.6661 6.22802 4.52147 5.87855 4.52147 5.51417C4.52147 5.14979 4.6661 4.80032 4.9236 4.5425Z" fill="#10224D"/>
<path id="Vector_2" d="M12.6785 6.46366L18.2739 12.059C18.3191 10.9823 18.7839 9.96601 19.5689 9.22762C20.3538 8.48922 21.3966 8.08734 22.4741 8.10794C23.5515 8.12854 24.5782 8.56999 25.3343 9.33785C26.0905 10.1057 26.5161 11.139 26.5202 12.2167L26.5202 22.014C26.5202 23.108 26.0856 24.1572 25.312 24.9308C24.5384 25.7044 23.4892 26.139 22.3952 26.139L12.5979 26.139C11.5202 26.1349 10.4869 25.7093 9.71904 24.9531C8.95118 24.197 8.50973 23.1704 8.48913 22.0929C8.46853 21.0154 8.87041 19.9726 9.60881 19.1877C10.3472 18.4027 11.3635 17.9379 12.4402 17.8927L6.84485 12.2973C5.02049 15.2094 4.05579 18.5776 4.06185 22.014C4.06185 32.1395 12.2697 40.3473 22.3952 40.3473C32.5207 40.3473 40.7285 32.1395 40.7285 22.014C40.7285 11.8885 32.5207 3.68066 22.3952 3.68066C18.8257 3.68066 15.4964 4.7 12.6785 6.46366Z" fill="#10224D"/>
</g>
</svg>
