<svg width="24" height="25" viewBox="0 0 24 25" fill="none" xmlns="http://www.w3.org/2000/svg">
<path fill-rule="evenodd" clip-rule="evenodd" d="M2.47 2.72544C2.61063 2.58499 2.80125 2.5061 3 2.5061C3.19875 2.5061 3.38938 2.58499 3.53 2.72544L11.25 10.4454L11.25 6.91044C11.25 6.71153 11.329 6.52077 11.4697 6.38011C11.6103 6.23946 11.8011 6.16044 12 6.16044C12.1989 6.16044 12.3897 6.23946 12.5303 6.38011C12.671 6.52077 12.75 6.71153 12.75 6.91044L12.75 12.2554C12.75 12.4544 12.671 12.6451 12.5303 12.7858C12.3897 12.9264 12.1989 13.0054 12 13.0054L6.656 13.0054C6.45709 13.0054 6.26632 12.9264 6.12567 12.7858C5.98502 12.6451 5.906 12.4544 5.906 12.2554C5.906 12.0565 5.98502 11.8658 6.12567 11.7251C6.26632 11.5845 6.45709 11.5054 6.656 11.5054L10.19 11.5054L2.47 3.78544C2.32955 3.64482 2.25066 3.45419 2.25066 3.25544C2.25066 3.05669 2.32955 2.86607 2.47 2.72544Z" fill="#10224D"/>
<path d="M6.7 3.77337L9.752 6.82537C9.77668 6.23807 10.0302 5.68374 10.4584 5.28098C10.8865 4.87822 11.4553 4.65901 12.043 4.67025C12.6307 4.68149 13.1907 4.92228 13.6032 5.34111C14.0156 5.75994 14.2478 6.32355 14.25 6.91137L14.25 12.2554C14.25 12.8521 14.0129 13.4244 13.591 13.8464C13.169 14.2683 12.5967 14.5054 12 14.5054L6.656 14.5054C6.06818 14.5032 5.50457 14.271 5.08574 13.8585C4.66691 13.4461 4.42612 12.8861 4.41488 12.2984C4.40364 11.7107 4.62285 11.1419 5.02561 10.7137C5.42837 10.2856 5.9827 10.032 6.57 10.0074L3.518 6.95537C2.52289 8.54379 1.99669 10.381 2 12.2554C2 17.7784 6.477 22.2554 12 22.2554C17.523 22.2554 22 17.7784 22 12.2554C22 6.73237 17.523 2.25537 12 2.25537C10.053 2.25537 8.237 2.81137 6.7 3.77337Z" fill="#10224D"/>
</svg>
