<svg width="644" height="953" viewBox="0 0 644 953" fill="none" xmlns="http://www.w3.org/2000/svg">
<path opacity="0.6" d="M41.0397 661.562V788.597L151.063 852.14L261.087 788.597V661.562L151.063 598.045L41.0397 661.562Z" fill="#A7D8D8"/>
<path opacity="0.6" d="M157.612 246.705V373.739L267.636 437.256L377.659 373.739V246.705L267.636 183.188L157.612 246.705Z" fill="#71A8B5"/>
<path opacity="0.6" d="M261.513 360.109V487.143L371.536 550.661L481.56 487.143V360.109L371.536 296.592L261.513 360.109Z" fill="#C5DFD9"/>
<path opacity="0.6" d="M151.542 550.66V677.695L261.566 741.212L371.589 677.695V550.66L261.566 487.143L151.542 550.66Z" fill="#71A8B5"/>
<path opacity="0.6" d="M371.537 423.6V550.634L481.56 614.151L591.584 550.634V423.6L481.56 360.083L371.537 423.6Z" fill="#71A8B5"/>
<path opacity="0.6" d="M41.5195 360.109V487.143L151.543 550.661L261.567 487.143V360.109L151.543 296.565L41.5195 360.109Z" fill="#A7D8D8"/>
<path opacity="0.6" d="M321.836 579.411V706.445L431.859 769.962L541.883 706.445V579.411L431.859 515.894L321.836 579.411Z" fill="#C5DFD9"/>
<path opacity="0.6" d="M325.669 92.5704L325.643 270.078L481.561 360.109L637.478 272.58V92.5704L481.587 2.53906L325.669 92.5704Z" fill="#A7D8D8"/>
<path opacity="0.6" d="M116.696 696.117V864.972L262.924 949.413L409.178 864.972V696.117L262.924 611.676L116.696 696.117Z" fill="#CAE6E6"/>
<path opacity="0.6" d="M8.42883 759.101V886.135L118.452 949.652L228.476 886.135V759.101L118.452 695.583L8.42883 759.101Z" fill="#71A8B5"/>
</svg>
