<svg width="527" height="998" viewBox="0 0 527 998" fill="none" xmlns="http://www.w3.org/2000/svg">
<g opacity="0.6">
<path opacity="0.6" d="M42.9069 693.137V826.103L158.068 892.614L273.23 826.103V693.137L158.068 626.653L42.9069 693.137Z" fill="#A7D8D8"/>
<path opacity="0.6" d="M164.923 258.905V391.872L280.085 458.355L395.246 391.872V258.905L280.085 192.422L164.923 258.905Z" fill="#71A8B5"/>
<path opacity="0.6" d="M273.676 377.606V510.572L388.837 577.056L503.999 510.572V377.606L388.837 311.123L273.676 377.606Z" fill="#C5DFD9"/>
<path opacity="0.6" d="M158.57 577.056V710.022L273.731 776.506L388.893 710.022V577.056L273.731 510.573L158.57 577.056Z" fill="#71A8B5"/>
<path opacity="0.6" d="M388.838 444.061V577.028L503.999 643.511L619.161 577.028V444.061L503.999 377.578L388.838 444.061Z" fill="#71A8B5"/>
<path opacity="0.6" d="M43.4091 377.606V510.572L158.571 577.056L273.732 510.572V377.606L158.571 311.095L43.4091 377.606Z" fill="#A7D8D8"/>
<path opacity="0.6" d="M336.816 607.149V740.115L451.977 806.599L567.139 740.115V607.149L451.977 540.666L336.816 607.149Z" fill="#C5DFD9"/>
<path opacity="0.6" d="M340.828 97.5735L340.801 283.37L503.999 377.606L667.198 285.989V97.5735L504.027 3.33777L340.828 97.5735Z" fill="#A7D8D8"/>
<path opacity="0.6" d="M122.096 729.304V906.045L275.153 994.429L428.237 906.045V729.304L275.153 640.92L122.096 729.304Z" fill="#CAE6E6"/>
<path opacity="0.6" d="M8.77332 795.23V928.196L123.935 994.68L239.096 928.196V795.23L123.935 728.747L8.77332 795.23Z" fill="#71A8B5"/>
</g>
</svg>
