<svg width="941" height="1680" viewBox="0 0 941 1680" fill="none" xmlns="http://www.w3.org/2000/svg">
<g opacity="0.6">
<path opacity="0.6" d="M78.4189 1123.15V1366.31L289.015 1487.94L499.612 1366.31V1123.15L289.015 1001.57L78.4189 1123.15Z" fill="#A7D8D8"/>
<path opacity="0.6" d="M301.551 329.072V572.228L512.147 693.807L722.743 572.228V329.072L512.147 207.494L301.551 329.072Z" fill="#71A8B5"/>
<path opacity="0.6" d="M500.427 546.14V789.297L711.024 910.875L921.62 789.297V546.14L711.024 424.562L500.427 546.14Z" fill="#C5DFD9"/>
<path opacity="0.6" d="M289.933 910.875V1154.03L500.529 1275.61L711.126 1154.03V910.875L500.529 789.297L289.933 910.875Z" fill="#71A8B5"/>
<path opacity="0.6" d="M711.025 667.667V910.824L921.621 1032.4L1132.22 910.824V667.667L921.621 546.089L711.025 667.667Z" fill="#71A8B5"/>
<path opacity="0.6" d="M79.3373 546.14V789.297L289.934 910.875L500.53 789.297V546.14L289.934 424.511L79.3373 546.14Z" fill="#A7D8D8"/>
<path opacity="0.6" d="M615.892 965.906V1209.06L826.488 1330.64L1037.08 1209.06V965.906L826.488 844.328L615.892 965.906Z" fill="#C5DFD9"/>
<path opacity="0.6" d="M623.229 34.0433L623.179 373.81L921.621 546.14L1220.06 378.6V34.0433L921.672 -138.286L623.229 34.0433Z" fill="#A7D8D8"/>
<path opacity="0.6" d="M223.233 1189.29V1512.5L503.128 1674.13L783.074 1512.5V1189.29L503.128 1027.66L223.233 1189.29Z" fill="#CAE6E6"/>
<path opacity="0.6" d="M15.9987 1309.85V1553.01L226.595 1674.59L437.192 1553.01V1309.85L226.595 1188.27L15.9987 1309.85Z" fill="#71A8B5"/>
</g>
</svg>
