<svg width="23" height="24" viewBox="0 0 23 24" fill="none" xmlns="http://www.w3.org/2000/svg">
<g clip-path="url(#clip0_1039_2804)">
<path d="M23 17.4237C23 18.1015 22.7308 18.7515 22.2515 19.2308C21.7723 19.71 21.1223 19.9793 20.4445 19.9793H15.3334V3.36816H20.4445C21.1223 3.36816 21.7723 3.63741 22.2515 4.11667C22.7308 4.59593 23 5.24594 23 5.92372V17.4237Z" fill="#ED2939"/>
<path d="M2.55556 3.36816C1.87778 3.36816 1.22776 3.63741 0.748505 4.11667C0.269245 4.59593 0 5.24594 0 5.92372L0 17.4237C0 18.1015 0.269245 18.7515 0.748505 19.2308C1.22776 19.71 1.87778 19.9793 2.55556 19.9793H7.66667V3.36816H2.55556Z" fill="#002495"/>
<path d="M7.66669 3.36816H15.3334V19.9793H7.66669V3.36816Z" fill="#EEEEEE"/>
</g>
<defs>
<clipPath id="clip0_1039_2804">
<rect width="23" height="23" fill="white" transform="translate(0 0.173721)"/>
</clipPath>
</defs>
</svg>
