<svg width="23" height="24" viewBox="0 0 23 24" fill="none" xmlns="http://www.w3.org/2000/svg">
<path d="M0 5.96141V8.47928H3.59567L0 5.96141ZM2.97978 19.9793H8.30556V16.2501L2.97978 19.9793ZM14.6944 16.2507V19.9793H20.0196L14.6944 16.2507ZM0 14.8682V17.386L3.59694 14.8682H0ZM20.0209 3.36816H14.6944V7.09736L20.0209 3.36816ZM23 17.3867V14.8682H19.4024L23 17.3867ZM23 8.47928V5.96141L19.4037 8.47928H23ZM8.30556 3.36816H2.97978L8.30556 7.09736V3.36816Z" fill="#00247D"/>
<path d="M16.0616 14.8683L22.2665 19.2134C22.569 18.9008 22.7867 18.5162 22.899 18.096L18.2894 14.8683H16.0616ZM8.30553 14.8683H6.93767L0.73342 19.2128C1.06628 19.5514 1.49306 19.7935 1.97159 19.906L8.30553 15.4708V14.8683ZM14.6944 8.47943H16.0623L22.2665 4.13498C21.9277 3.79177 21.4987 3.55145 21.029 3.44179L14.6944 7.87695V8.47943ZM6.93767 8.47943L0.73342 4.13498C0.430693 4.44748 0.212765 4.8321 0.100281 5.2524L4.70986 8.47943H6.93767Z" fill="#CF1B2B"/>
<path d="M23 13.5904H13.4167V19.9793H14.6944V16.2507L20.0196 19.9793H20.4444C20.7838 19.979 21.1197 19.9111 21.4326 19.7796C21.7454 19.648 22.0289 19.4555 22.2666 19.2132L16.0617 14.8682H18.2895L22.8991 18.0958C22.9585 17.8805 23 17.6576 23 17.4237V17.3867L19.4024 14.8682H23V13.5904ZM0 13.5904V14.8682H3.59694L0 17.386V17.4237C0 18.1207 0.280472 18.7513 0.733444 19.2126L6.93769 14.8682H8.30556V15.4706L1.97161 19.9052C2.15944 19.9499 2.35367 19.9793 2.55556 19.9793H2.97978L8.30556 16.2501V19.9793H9.58333V13.5904H0ZM23 5.92372C23.0006 5.25411 22.737 4.6113 22.2666 4.13483L16.0623 8.47928H14.6944V7.8768L21.029 3.44164C20.8377 3.39469 20.6415 3.37004 20.4444 3.36816H20.0209L14.6944 7.09736V3.36816H13.4167V9.75705H23V8.47928H19.4037L23 5.96141V5.92372ZM8.30556 3.36816V7.09736L2.97978 3.36816H2.55556C2.21615 3.36855 1.88021 3.43655 1.56737 3.56818C1.25452 3.69981 0.971031 3.89244 0.733444 4.13483L6.93769 8.47928H4.70989L0.100306 5.25225C0.0371557 5.47061 0.0034229 5.69643 0 5.92372L0 5.96141L3.59567 8.47928H0V9.75705H9.58333V3.36816H8.30556Z" fill="#EEEEEE"/>
<path d="M13.4167 9.75705V3.36816H9.58333V9.75705H0V13.5904H9.58333V19.9793H13.4167V13.5904H23V9.75705H13.4167Z" fill="#CF1B2B"/>
</svg>
