<svg width="37" height="23" viewBox="0 0 37 23" fill="none" xmlns="http://www.w3.org/2000/svg">
<path d="M2 9.75537C1.17157 9.75537 0.5 10.4269 0.5 11.2554C0.5 12.0838 1.17157 12.7554 2 12.7554L2 9.75537ZM36.0758 12.316C36.6616 11.7302 36.6616 10.7805 36.0758 10.1947L26.5299 0.648765C25.9441 0.0629784 24.9943 0.0629785 24.4085 0.648765C23.8228 1.23455 23.8228 2.1843 24.4085 2.77009L32.8938 11.2554L24.4085 19.7406C23.8228 20.3264 23.8228 21.2762 24.4085 21.862C24.9943 22.4478 25.9441 22.4478 26.5299 21.862L36.0758 12.316ZM2 11.2554L2 12.7554L35.0151 12.7554L35.0151 11.2554L35.0151 9.75537L2 9.75537L2 11.2554Z" fill="#C6DFD9"/>
</svg>
