<svg width="37" height="23" viewBox="0 0 37 23" fill="none" xmlns="http://www.w3.org/2000/svg">
<path d="M2 9.63208C1.17157 9.63208 0.5 10.3037 0.5 11.1321C0.5 11.9605 1.17157 12.6321 2 12.6321V9.63208ZM36.0758 12.1927C36.6616 11.607 36.6616 10.6572 36.0758 10.0714L26.5299 0.525478C25.9441 -0.0603085 24.9943 -0.0603085 24.4085 0.525478C23.8228 1.11127 23.8228 2.06101 24.4085 2.6468L32.8938 11.1321L24.4085 19.6174C23.8228 20.2031 23.8228 21.1529 24.4085 21.7387C24.9943 22.3245 25.9441 22.3245 26.5299 21.7387L36.0758 12.1927ZM2 11.1321V12.6321L35.0151 12.6321V11.1321V9.63208L2 9.63208V11.1321Z" fill="#71A8B5"/>
</svg>
