<svg width="350" height="126" viewBox="0 0 350 126" fill="none" xmlns="http://www.w3.org/2000/svg">
<path d="M348 125.742C348.828 125.742 349.5 125.07 349.5 124.242C349.5 123.413 348.828 122.742 348 122.742L348 125.742ZM11.5 124.242L10 124.242L10 125.742L11.5 125.742L11.5 124.242ZM12.5607 1.19476C11.9749 0.608979 11.0251 0.608979 10.4393 1.19476L0.893412 10.7407C0.307627 11.3265 0.307627 12.2762 0.893412 12.862C1.4792 13.4478 2.42893 13.4478 3.01472 12.862L11.5 4.37675L19.9853 12.862C20.5711 13.4478 21.5208 13.4478 22.1066 12.862C22.6924 12.2762 22.6924 11.3265 22.1066 10.7407L12.5607 1.19476ZM348 124.242L348 122.742L11.5 122.742L11.5 124.242L11.5 125.742L348 125.742L348 124.242ZM11.5 124.242L13 124.242L13 2.25543L11.5 2.25543L10 2.25543L10 124.242L11.5 124.242Z" fill="#C6DFD9"/>
</svg>
