<svg width="23" height="49" viewBox="0 0 23 49" fill="none" xmlns="http://www.w3.org/2000/svg">
<path d="M13 2.25537C13 1.42694 12.3284 0.755371 11.5 0.755371C10.6716 0.755371 10 1.42694 10 2.25537H13ZM10.4393 48.316C11.0251 48.9018 11.9749 48.9018 12.5607 48.316L22.1066 38.7701C22.6924 38.1843 22.6924 37.2346 22.1066 36.6488C21.5208 36.063 20.5711 36.063 19.9853 36.6488L11.5 45.1341L3.01472 36.6488C2.42893 36.063 1.47919 36.063 0.893398 36.6488C0.307611 37.2346 0.307611 38.1843 0.893398 38.7701L10.4393 48.316ZM11.5 2.25537H10L10 47.2554H11.5H13L13 2.25537H11.5Z" fill="#C6DFD9"/>
</svg>
